<svg width="16" height="16" viewBox="0 0 16 16" fill="none" xmlns="http://www.w3.org/2000/svg">
<path fill-rule="evenodd" clip-rule="evenodd" d="M13 2H14V3H13V2ZM12 1H13H14H15V2V3V4H14H13H12V3H3.5C2.67157 3 2 3.67157 2 4.5V5.5C2 6.32843 2.67157 7 3.5 7H7V6H8H9H10V7H13C14.3807 7 15.5 8.11929 15.5 9.5V10.5C15.5 11.8807 14.3807 13 13 13H4V14H3H2H1V13V12V11H2H3H4V12H13C13.8284 12 14.5 11.3284 14.5 10.5V9.5C14.5 8.67157 13.8284 8 13 8H10V9H9H8H7V8H3.5C2.11929 8 1 6.88071 1 5.5V4.5C1 3.11929 2.11929 2 3.5 2H12V1ZM8 7H9V8H8V7ZM2 12H3V13H2V12Z" fill="#272F5A"/>
</svg>
