<svg width="16" height="16" viewBox="0 0 16 16" fill="none" xmlns="http://www.w3.org/2000/svg">
<path fill-rule="evenodd" clip-rule="evenodd" d="M7.99999 1C8.27613 1 8.49999 1.22386 8.49999 1.5V8.20711L3.70707 13H5.49997C5.77611 13 5.99997 13.2239 5.99997 13.5C5.99997 13.7762 5.77611 14 5.49997 14H2.06632L2.00535 13.5732L2.00474 13.5689L1.57571 10.5657C1.53665 10.2924 1.7266 10.0391 1.99997 10C2.27334 9.96098 2.5266 10.1509 2.56566 10.4243L2.85352 12.4394L7.49999 7.79289V1.5C7.49999 1.22386 7.72385 1 7.99999 1ZM9.64645 9.64645C9.84171 9.45118 10.1583 9.45118 10.3536 9.64645L13.1465 12.4394L13.4343 10.4243C13.4734 10.1509 13.7267 9.96098 14 10C14.2734 10.0391 14.4633 10.2924 14.4243 10.5657L13.9953 13.5689L13.9946 13.5733L13.9337 14H10.5C10.2239 14 10 13.7762 10 13.5C10 13.2239 10.2239 13 10.5 13H12.2929L9.64645 10.3536C9.45118 10.1583 9.45118 9.84171 9.64645 9.64645Z" fill="#272F5A"/>
</svg>
