<svg width="16" height="16" viewBox="0 0 16 16" fill="none" xmlns="http://www.w3.org/2000/svg">
<path fill-rule="evenodd" clip-rule="evenodd" d="M6 2H10V3H6V2ZM5 3V2C5 1.44772 5.44772 1 6 1H10C10.5523 1 11 1.44772 11 2V3H14C14.5523 3 15 3.44772 15 4V13C15 13.5523 14.5523 14 14 14H2C1.44772 14 1 13.5523 1 13V4C1 3.44772 1.44772 3 2 3H5ZM11 4H10H6H5H2V6.24735C2.66141 6.72665 3.66351 7.37941 4.72971 7.93089C5.93053 8.552 7.12945 9 8 9C8.87055 9 10.0695 8.552 11.2703 7.93089C12.3365 7.37941 13.3386 6.72665 14 6.24735V4H11ZM11.7297 8.81911C12.5653 8.38692 13.3606 7.89723 14 7.4665V13H2V7.4665C2.63939 7.89723 3.43472 8.38692 4.27029 8.81911C5.48614 9.448 6.87055 10 8 10C9.12945 10 10.5139 9.448 11.7297 8.81911Z" fill="#272F5A"/>
</svg>
