<svg width="16" height="16" viewBox="0 0 16 16" fill="none" xmlns="http://www.w3.org/2000/svg">
<path fill-rule="evenodd" clip-rule="evenodd" d="M12 6.00828V5.99983C12 3.79073 10.2092 2 8 2C5.79082 2 4 3.79073 4 5.99983V6.00828V6.01673V6.02518V6.03363V6.04208V6.05054V6.05899V6.06745V6.0759V6.08436V6.09281V6.10127V6.10973V6.11818V6.12664V6.1351V6.14356V6.15202V6.16048V6.16894V6.1774V6.18586V6.19432V6.20279V6.21125V6.21971V6.22817V6.23664V6.2451V6.25356V6.26203V6.27049V6.27895V6.28742V6.29588V6.30435V6.31281V6.32127V6.32974V6.3382V6.34667V6.35513V6.3636V6.37206V6.38052V6.38899V6.39745V6.40592V6.41438V6.42284V6.43131V6.43977V6.44823V6.45669V6.46516V6.47362V6.48208V6.49054V6.499V6.50746V6.51592V6.52438V6.53284V6.5413V6.54976V6.55822V6.56667V6.57513V6.58359V6.59204V6.6005V6.60895V6.6174V6.62586V6.63431V6.64276V6.65121V6.65966V6.66811V6.67656V6.68501V6.69346V6.70191V6.71035V6.7188V6.72724V6.73568V6.74413V6.75257V6.76101V6.76945V6.77789V6.78632V6.79476V6.8032V6.81163V6.82006V6.8285V6.83693V6.84536V6.85379V6.86221V6.87064V6.87907V6.88749V6.89591V6.90433V6.91275V6.92117V6.92959V6.93801V6.94642V6.95484V6.96325V6.97166V6.98007V6.98848V6.99688V7.00529V7.01369V7.02209V7.03049V7.03889V7.04729V7.05569V7.06408V7.07247V7.08086V7.08925V7.09764V7.10603V7.11441V7.12279V7.13117V7.13955V7.14793V7.1563V7.16468V7.17305V7.18142V7.18978V7.19815V7.20651V7.21487V7.22323V7.23159V7.23995V7.2483V7.25665V7.265V7.27335V7.28169V7.29004V7.29838V7.30672V7.31505V7.32339V7.33172V7.34005V7.34838V7.3567V7.36503V7.37335V7.38167V7.38998V7.39829V7.40661V7.41492V7.42322V7.43153V7.43983V7.44813V7.45642V7.46472V7.47301V7.4813V7.48958V7.49787V7.50615V7.51443V7.5227V7.53097V7.53924V7.54751V7.55578V7.56404V7.5723V7.58055V7.58881V7.59706V7.60531V7.61355V7.62179V7.63003V7.63827V7.6465V7.65473V7.66296V7.67119V7.67941V7.68763V7.69584V7.70405V7.71226V7.72047V7.72867V7.73687V7.74507V7.75326V7.76145V7.76964V7.77782V7.786V7.79418V7.80235V7.81052V7.81869V7.82686V7.83502V7.84317V7.85133V7.85948V7.86762V7.87577V7.88391V7.89204V7.90018V7.9083V7.91643V7.92455V7.93267V7.94078V7.9489V7.957V7.96511V7.97321V7.9813V7.9894V7.99748V8.00557V8.01365V8.02173V8.0298V8.03787V8.04594V8.054V8.06206V8.07011V8.07816V8.08621V8.09425V8.10229V8.11032V8.11835V8.12638V8.1344V8.14242V8.15043V8.15844V8.16645V8.17445V8.18244V8.19044V8.19842V8.20641V8.21439V8.22236V8.23034V8.2383V8.24627V8.25422V8.26218V8.27013V8.27807V8.28601V8.29395V8.30188V8.30981V8.31773V8.32565V8.33356V8.34147V8.34938V8.35728V8.36517V8.37306V8.38095V8.38883V8.39671V8.40458V8.41244V8.42031V8.42816V8.43602V8.44386V8.45171V8.45954V8.46738V8.47521V8.48303V8.49085V8.49866V8.50647V8.51427V8.52207V8.52987V8.53765V8.54544V8.55322V8.56099V8.56876V8.57652V8.58428V8.59203V8.59978V8.60752V8.61526V8.62299V8.63071V8.63843V8.64615V8.65386V8.66157V8.66927V8.67696V8.68465V8.69233V8.70001V8.70768V8.71535V8.72301V8.73067V8.73832V8.74596V8.7536V8.76123V8.76886V8.77648V8.7841V8.79171V8.79932V8.80692V8.81451V8.8221V8.82968V8.83726V8.84483V8.85239V8.85995V8.86751V8.87505V8.8826V8.89013V8.89766V8.90518V8.9127V8.92021V8.92772V8.93522V8.94271V8.9502V8.95768V8.96516V8.97263V8.98009V8.98755V8.995V9.00244V9.00988V9.01731V9.02474V9.03216V9.03957V9.04698V9.05438V9.06177V9.06916V9.07654V9.08391V9.09128V9.09864V9.106V9.11335V9.12069V9.12803V9.13536V9.14268V9.15V9.15731V9.16461V9.17191V9.1792V9.18648V9.19375V9.20102V9.20829V9.21554V9.22279V9.23003V9.23727V9.2445V9.25172V9.25894V9.26615V9.27335V9.28054V9.28773V9.29491V9.30208V9.30925V9.31641V9.32356V9.33071V9.33785V9.34498V9.3521V9.35922V9.36633V9.37343V9.38053V9.38761V9.3947V9.40177V9.40884V9.4159V9.42295V9.42999V9.43703V9.44406V9.45108V9.4581V9.4651V9.4721V9.4791V9.48608V9.49306V9.50003V9.50699V9.51395V9.5209V9.52784V9.53477V9.54169V9.54861V9.55552V9.56242V9.56932V9.5762V9.58308V9.58995V9.59682V9.60367V9.61052V9.61736V9.62419V9.63101V9.63783V9.64464V9.65144V9.65823V9.66501V9.67179V9.67856V9.68532V9.69207V9.69882V9.70555V9.71228V9.719V9.72571V9.73241V9.73911V9.7458V9.75248V9.75915V9.76581V9.77246V9.77911V9.78575V9.79238V9.799V9.80561V9.81221V9.81881V9.8254V9.83198V9.83855V9.84511V9.85166V9.85821V9.86474V9.87127V9.87779V9.8843V9.8908V9.8973V9.90378V9.91026V9.91672V9.92318V9.92963V9.93607V9.94251V9.94893V9.95534V9.96175V9.96815V9.97454V9.98092V9.98729V9.99365V10C4 10.6581 3.60514 11.0863 3.31298 11.3205C3.05965 11.5236 2.74592 11.6893 2.53024 11.8032L2.46947 11.8354C2.34644 11.9008 2.24974 11.9542 2.17299 12H13.827C13.7503 11.9542 13.6536 11.9008 13.5305 11.8354L13.4698 11.8032C13.2541 11.6893 12.9403 11.5236 12.687 11.3205C12.3949 11.0863 12 10.6581 12 10V9.99365V9.98729V9.98092V9.97454V9.96815V9.96175V9.95534V9.94893V9.94251V9.93607V9.92963V9.92318V9.91672V9.91026V9.90378V9.8973V9.8908V9.8843V9.87779V9.87127V9.86474V9.85821V9.85166V9.84511V9.83855V9.83198V9.8254V9.81881V9.81221V9.80561V9.799V9.79238V9.78575V9.77911V9.77246V9.76581V9.75915V9.75248V9.7458V9.73911V9.73241V9.72571V9.719V9.71228V9.70555V9.69882V9.69207V9.68532V9.67856V9.67179V9.66501V9.65823V9.65144V9.64464V9.63783V9.63101V9.62419V9.61736V9.61052V9.60367V9.59682V9.58995V9.58308V9.5762V9.56932V9.56242V9.55552V9.54861V9.54169V9.53477V9.52784V9.5209V9.51395V9.50699V9.50003V9.49306V9.48608V9.4791V9.4721V9.4651V9.4581V9.45108V9.44406V9.43703V9.42999V9.42295V9.4159V9.40884V9.40177V9.3947V9.38761V9.38053V9.37343V9.36633V9.35922V9.3521V9.34498V9.33785V9.33071V9.32356V9.31641V9.30925V9.30208V9.29491V9.28773V9.28054V9.27335V9.26615V9.25894V9.25172V9.2445V9.23727V9.23003V9.22279V9.21554V9.20829V9.20102V9.19375V9.18648V9.1792V9.17191V9.16461V9.15731V9.15V9.14268V9.13536V9.12803V9.12069V9.11335V9.106V9.09864V9.09128V9.08391V9.07654V9.06916V9.06177V9.05438V9.04698V9.03957V9.03216V9.02474V9.01731V9.00988V9.00244V8.995V8.98755V8.98009V8.97263V8.96516V8.95768V8.9502V8.94271V8.93522V8.92772V8.92021V8.9127V8.90518V8.89766V8.89013V8.8826V8.87505V8.86751V8.85995V8.85239V8.84483V8.83726V8.82968V8.8221V8.81451V8.80692V8.79932V8.79171V8.7841V8.77648V8.76886V8.76123V8.7536V8.74596V8.73832V8.73067V8.72301V8.71535V8.70768V8.70001V8.69233V8.68465V8.67696V8.66927V8.66157V8.65386V8.64615V8.63843V8.63071V8.62299V8.61526V8.60752V8.59978V8.59203V8.58428V8.57652V8.56876V8.56099V8.55322V8.54544V8.53765V8.52987V8.52207V8.51427V8.50647V8.49866V8.49085V8.48303V8.47521V8.46738V8.45954V8.45171V8.44386V8.43602V8.42816V8.42031V8.41244V8.40458V8.39671V8.38883V8.38095V8.37306V8.36517V8.35728V8.34938V8.34147V8.33356V8.32565V8.31773V8.30981V8.30188V8.29395V8.28601V8.27807V8.27013V8.26218V8.25422V8.24627V8.2383V8.23034V8.22236V8.21439V8.20641V8.19842V8.19044V8.18244V8.17445V8.16645V8.15844V8.15043V8.14242V8.1344V8.12638V8.11835V8.11032V8.10229V8.09425V8.08621V8.07816V8.07011V8.06206V8.054V8.04594V8.03787V8.0298V8.02173V8.01365V8.00557V7.99748V7.9894V7.9813V7.97321V7.96511V7.957V7.9489V7.94078V7.93267V7.92455V7.91643V7.9083V7.90018V7.89204V7.88391V7.87577V7.86762V7.85948V7.85133V7.84317V7.83502V7.82686V7.81869V7.81052V7.80235V7.79418V7.786V7.77782V7.76964V7.76145V7.75326V7.74507V7.73687V7.72867V7.72047V7.71226V7.70405V7.69584V7.68763V7.67941V7.67119V7.66296V7.65473V7.6465V7.63827V7.63003V7.62179V7.61355V7.60531V7.59706V7.58881V7.58055V7.5723V7.56404V7.55578V7.54751V7.53924V7.53097V7.5227V7.51443V7.50615V7.49787V7.48958V7.4813V7.47301V7.46472V7.45642V7.44813V7.43983V7.43153V7.42322V7.41492V7.40661V7.39829V7.38998V7.38167V7.37335V7.36503V7.3567V7.34838V7.34005V7.33172V7.32339V7.31505V7.30672V7.29838V7.29004V7.28169V7.27335V7.265V7.25665V7.2483V7.23995V7.23159V7.22323V7.21487V7.20651V7.19815V7.18978V7.18142V7.17305V7.16468V7.1563V7.14793V7.13955V7.13117V7.12279V7.11441V7.10603V7.09764V7.08925V7.08086V7.07247V7.06408V7.05569V7.04729V7.03889V7.03049V7.02209V7.01369V7.00529V6.99688V6.98848V6.98007V6.97166V6.96325V6.95484V6.94642V6.93801V6.92959V6.92117V6.91275V6.90433V6.89591V6.88749V6.87907V6.87064V6.86221V6.85379V6.84536V6.83693V6.8285V6.82006V6.81163V6.8032V6.79476V6.78632V6.77789V6.76945V6.76101V6.75257V6.74413V6.73568V6.72724V6.7188V6.71035V6.70191V6.69346V6.68501V6.67656V6.66811V6.65966V6.65121V6.64276V6.63431V6.62586V6.6174V6.60895V6.6005V6.59204V6.58359V6.57513V6.56667V6.55822V6.54976V6.5413V6.53284V6.52438V6.51592V6.50746V6.499V6.49054V6.48208V6.47362V6.46516V6.45669V6.44823V6.43977V6.43131V6.42284V6.41438V6.40592V6.39745V6.38899V6.38052V6.37206V6.3636V6.35513V6.34667V6.3382V6.32974V6.32127V6.31281V6.30435V6.29588V6.28742V6.27895V6.27049V6.26203V6.25356V6.2451V6.23664V6.22817V6.21971V6.21125V6.20279V6.19432V6.18586V6.1774V6.16894V6.16048V6.15202V6.14356V6.1351V6.12664V6.11818V6.10973V6.10127V6.09281V6.08436V6.0759V6.06745V6.05899V6.05054V6.04208V6.03363V6.02518V6.01673V6.00828ZM14 13H9.99999C9.99999 14.1046 9.10456 15 7.99999 15C6.89542 15 5.99999 14.1046 5.99999 13H1V12C1.00001 11.4831 1.53445 11.1995 2.05079 10.9255C2.5333 10.6695 3 10.4218 3 10V5.99983C3 3.2384 5.23858 1 8 1C10.7614 1 13 3.2384 13 5.99983V10C13 10.4218 13.4667 10.6695 13.9492 10.9255C14.4655 11.1995 15 11.4831 15 12V13H14ZM7.99999 14C7.44771 14 6.99999 13.5523 6.99999 13H8.99999C8.99999 13.5523 8.55228 14 7.99999 14ZM7.99999 3C7.12965 3 6.3441 3.29673 5.79281 4.00553C5.25878 4.69214 4.99999 5.69586 4.99999 7C4.99999 7.27614 5.22385 7.5 5.49999 7.5C5.77613 7.5 5.99999 7.27614 5.99999 7C5.99999 5.80414 6.2412 5.05786 6.58217 4.61947C6.90588 4.20327 7.37033 4 7.99999 4C8.27613 4 8.49999 3.77614 8.49999 3.5C8.49999 3.22386 8.27613 3 7.99999 3Z" fill="#272F5A"/>
</svg>
