<svg width="16" height="16" viewBox="0 0 16 16" fill="none" xmlns="http://www.w3.org/2000/svg">
<path fill-rule="evenodd" clip-rule="evenodd" d="M3 3.5C3 3.22386 3.22386 3 3.5 3H12.5C12.7761 3 13 3.22386 13 3.5C13 3.77614 12.7761 4 12.5 4H3.5C3.22386 4 3 3.77614 3 3.5ZM2 3C2 2.44772 2.44772 2 3 2H13C13.5523 2 14 2.44772 14 3V4C14 4.37855 13.7897 4.70797 13.4795 4.87776C13.2034 5.0289 12.8889 5.14819 12.7 5.4L10 9L9.99998 12.8604L6 14L5.99998 9L3.3 5.4C3.11115 5.1482 2.79661 5.0289 2.52051 4.87776C2.21034 4.70797 2 4.37855 2 4V3ZM4.375 5L6.99998 8.5V12.5L8.99998 12V8.5L11.625 5H4.375Z" fill="#272F5A"/>
</svg>
