<svg width="16" height="16" viewBox="0 0 16 16" fill="none" xmlns="http://www.w3.org/2000/svg">
<path fill-rule="evenodd" clip-rule="evenodd" d="M2 4H14V13H2V4ZM1 4C1 3.44771 1.44772 3 2 3H14C14.5523 3 15 3.44772 15 4V13C15 13.5523 14.5523 14 14 14H2C1.44772 14 1 13.5523 1 13V4ZM3.74282 6.06292C3.50143 5.92881 3.19703 6.01579 3.06292 6.25718C2.92881 6.49857 3.01579 6.80297 3.25718 6.93708L7.75718 9.43708C7.90819 9.52097 8.09181 9.52097 8.24282 9.43708L12.7428 6.93708C12.9842 6.80297 13.0712 6.49857 12.9371 6.25718C12.803 6.01579 12.4986 5.92881 12.2572 6.06292L8 8.42802L3.74282 6.06292Z" fill="#272F5A"/>
</svg>
