<svg width="16" height="16" viewBox="0 0 16 16" fill="none" xmlns="http://www.w3.org/2000/svg">
<path fill-rule="evenodd" clip-rule="evenodd" d="M12 6C12 7.06129 11.4063 8.34369 10.413 9.86339C9.92954 10.6029 9.38225 11.3549 8.81801 12.1259L8.72926 12.2471L8.72904 12.2474C8.48652 12.5787 8.24132 12.9137 8 13.2496C7.75861 12.9136 7.51334 12.5785 7.27074 12.2471L7.18199 12.1259C6.61775 11.3549 6.07046 10.6029 5.58704 9.86339C4.59366 8.34369 4 7.06129 4 6C4 3.79086 5.79086 2 8 2C10.2091 2 12 3.79086 12 6ZM9.54023 12.8323C9.22543 13.2623 8.91161 13.6911 8.60974 14.1165C8.39946 14.4128 8.19498 14.7075 8 15C7.80502 14.7075 7.60054 14.4128 7.39026 14.1165C7.08839 13.6911 6.77457 13.2623 6.45977 12.8323C4.74449 10.489 3 8.10575 3 6C3 3.23858 5.23858 1 8 1C10.7614 1 13 3.23858 13 6C13 8.10575 11.2555 10.489 9.54024 12.8323L9.54023 12.8323ZM10 6C10 7.10457 9.10457 8 8 8C6.89543 8 6 7.10457 6 6C6 4.89543 6.89543 4 8 4C9.10457 4 10 4.89543 10 6ZM9 6C9 6.55228 8.55229 7 8 7C7.44772 7 7 6.55228 7 6C7 5.44772 7.44772 5 8 5C8.55229 5 9 5.44772 9 6Z" fill="#272F5A"/>
</svg>
