<svg width="16" height="16" viewBox="0 0 16 16" fill="none" xmlns="http://www.w3.org/2000/svg">
<path fill-rule="evenodd" clip-rule="evenodd" d="M5.58579 2C5.851 2 6.10536 2.10536 6.29289 2.29289L7.70711 3.70711C7.89464 3.89464 8.149 4 8.41421 4H13C13.5523 4 14 4.44772 14 5V13C14 13.5523 13.5523 14 13 14H3C2.44772 14 2 13.5523 2 13V3C2 2.44772 2.44772 2 3 2H5.58579ZM7.29289 4.70711C7.48043 4.89464 7.73478 5 8 5H13V13H3V3H5.17157C5.43679 3 5.69114 3.10536 5.87868 3.29289L7.29289 4.70711ZM8 7H7V11H8V7ZM6 9H5V11H6V9ZM9 8H10V11H9V8Z" fill="#272F5A"/>
</svg>
