<svg width="16" height="16" viewBox="0 0 16 16" fill="none" xmlns="http://www.w3.org/2000/svg">
<path fill-rule="evenodd" clip-rule="evenodd" d="M6.33078 3.69809L3.6327 1L1 3.63272V4C1.07907 6.84403 2.19747 9.49521 4.35111 11.6489C6.50478 13.8025 9.15595 14.921 12 15H12.3672L15 12.3672L12.3019 9.66914L9.10092 10.7361L5.26382 6.89907L6.33078 3.69809ZM2 4L3.6327 2.39448L5.20263 3.96442L4.13568 7.1654L8.8346 11.8643L12.0356 10.7973L13.6055 12.3672L12 14C9.46797 13.88 6.96214 12.8654 5.04835 10.9516C3.13459 9.03785 2.11998 6.53203 2 4ZM9 1.01892C12.2013 1.26245 14.7565 3.81761 15 7.01892H13.9933C13.7548 4.37199 11.6469 2.2641 9 2.02558V1.01892ZM9 4.04498C10.5377 4.26493 11.754 5.48122 11.9739 7.01892H10.9562C10.7567 6.03625 9.98267 5.26222 9 5.06275V4.04498Z" fill="#272F5A"/>
</svg>
