<svg width="16" height="16" viewBox="0 0 16 16" fill="none" xmlns="http://www.w3.org/2000/svg">
<path fill-rule="evenodd" clip-rule="evenodd" d="M4 3V2L12 2V3L8.5 3V6H7.5V3H4ZM2 7H3V12H2V7ZM1 7C1 6.44772 1.44772 6 2 6H3C3.55228 6 4 6.44772 4 7V12C4 12.5523 3.55228 13 3 13H2C1.44772 13 1 12.5523 1 12V7ZM13 7H14V12H13V7ZM12 7C12 6.44772 12.4477 6 13 6H14C14.5523 6 15 6.44772 15 7V12C15 12.5523 14.5523 13 14 13H13C12.4477 13 12 12.5523 12 12V7ZM4 7H12V8H4V7ZM12 11H4V12H12V11Z" fill="#272F5A"/>
</svg>
