<svg width="16" height="16" viewBox="0 0 16 16" fill="none" xmlns="http://www.w3.org/2000/svg">
<path fill-rule="evenodd" clip-rule="evenodd" d="M9.87053 8.97173L10.0817 9.00672C11.3407 9.21537 12.3094 9.81443 12.965 10.4816C13.2922 10.8145 13.5458 11.1687 13.7197 11.507C13.7782 11.6208 14.0017 12.098 13.9999 12.5015L13.9999 12.5031C13.9997 12.5342 13.9975 12.5653 13.9942 12.5962C13.9891 12.6434 13.9796 12.7055 13.9616 12.7775C13.9257 12.9211 13.8544 13.1107 13.7124 13.3C13.4111 13.7017 12.8719 14 11.9999 14H3.99994C3.12795 14 2.58875 13.7017 2.28744 13.3C2.14544 13.1107 2.0742 12.9211 2.03831 12.7775C2.0203 12.7055 2.01077 12.6434 2.00572 12.5962C2 12 2.10437 11.9127 2.2802 11.507C2.45413 11.1687 2.70764 10.8145 3.03484 10.4816C3.6905 9.81443 4.65919 9.21537 5.91819 9.00672L6.12936 8.97173L6.30043 9.10036C6.4338 9.20064 6.55278 9.30021 6.6655 9.39454C7.06685 9.73041 7.38899 9.99999 7.99994 9.99999C8.61089 9.99999 8.93304 9.7304 9.33439 9.39454C9.44711 9.30021 9.56608 9.20065 9.69945 9.10036L9.87053 8.97173ZM3.00845 12.535C3.00313 12.5137 3.00091 12.4978 3.00007 12.4901C3.00268 12.3892 3.04498 12.2066 3.16957 11.9642C3.29419 11.7218 3.48643 11.4488 3.74807 11.1825C4.23276 10.6893 4.941 10.2339 5.86454 10.0346L5.92283 10.0847C6.33781 10.4418 6.98661 11 7.99994 11C9.01328 11 9.66208 10.4418 10.0771 10.0847L10.1353 10.0346C11.0589 10.2339 11.7671 10.6893 12.2518 11.1825C12.5135 11.4488 12.7057 11.7218 12.8303 11.9642C12.9549 12.2066 12.9972 12.3892 12.9998 12.4901C12.999 12.4978 12.9968 12.5137 12.9914 12.535C12.9804 12.5789 12.9579 12.6393 12.9124 12.7C12.8388 12.7983 12.6279 13 11.9999 13H3.99994C3.37194 13 3.16113 12.7983 3.08744 12.7C3.04194 12.6393 3.01944 12.5789 3.00845 12.535Z" fill="#272F5A"/>
<path fill-rule="evenodd" clip-rule="evenodd" d="M9.30814 7.14279C9.73322 6.54898 9.99994 5.75142 9.99994 5C9.99994 4.27806 9.75647 3.80352 9.43774 3.50506C9.10861 3.19685 8.61638 3 7.99994 3C7.3835 3 6.89128 3.19685 6.56214 3.50506C6.24342 3.80352 5.99994 4.27806 5.99994 5C5.99994 5.75142 6.26667 6.54898 6.69175 7.14279C7.12523 7.74833 7.60856 8 7.99994 8C8.39133 8 8.87465 7.74833 9.30814 7.14279ZM7.99994 9C9.6568 9 10.9999 6.933 10.9999 5C10.9999 3.067 9.6568 2 7.99994 2C6.34309 2 4.99994 3.067 4.99994 5C4.99994 6.933 6.34309 9 7.99994 9Z" fill="#272F5A"/>
</svg>
