<svg width="32" height="32" viewBox="0 0 32 32" fill="none" xmlns="http://www.w3.org/2000/svg">
<rect width="32" height="32" rx="16" fill="#F3F5F6"/>
<path fillRule="evenodd" clipRule="evenodd" d="M14.82 8.32597C15.2294 7.83362 15.7033 7.39148 16.2334 7.01406C16.7494 6.64674 16.4749 6.01492 15.9464 5.99995C14.9995 5.97313 14.0329 6.08147 13.071 6.3392C7.73637 7.76861 4.57054 13.252 5.99996 18.5866C7.42938 23.9213 12.9127 27.0871 18.2474 25.6577C18.3658 25.626 18.4832 25.5923 18.5994 25.5566C20.1592 25.0778 21.5237 24.2468 22.6263 23.1745C22.7565 23.0479 22.883 22.9179 23.0057 22.7848L23.0151 22.7746C23.5994 22.1391 24.0983 21.4315 24.5001 20.6718C24.7472 20.2045 24.4447 19.6026 23.7592 19.9219C23.3681 20.1041 22.9559 20.255 22.5247 20.3705C18.5237 21.4426 14.4112 19.0682 13.3391 15.0672C12.7848 12.9984 13.1519 10.8997 14.189 9.207C14.3741 8.90478 14.5806 8.61549 14.8071 8.34163L14.82 8.32597ZM22.0133 21.5055C21.9864 21.5101 21.9596 21.5146 21.9327 21.519C21.8465 21.5329 21.7602 21.5456 21.6741 21.5568C21.5937 21.5673 21.5134 21.5766 21.4331 21.5848L21.3831 21.5897C17.326 21.9779 13.4631 19.3937 12.3732 15.326C12.3026 15.0624 12.2452 14.7985 12.2005 14.5347C11.8185 12.2781 12.3731 10.042 13.6105 8.26523C13.6502 8.20831 13.6905 8.15186 13.7315 8.0959C13.8293 7.96261 13.9309 7.83207 14.0364 7.70449C14.4247 7.23488 14.3323 7.06147 13.5007 7.26156C13.4469 7.27451 13.3899 7.28902 13.3298 7.30512C13.3055 7.31164 13.2812 7.31826 13.257 7.32497C13.1719 7.34852 13.0874 7.37321 13.0036 7.39904C8.40053 8.8172 5.70883 13.6364 6.96589 18.3278C8.25236 23.129 13.1874 25.9783 17.9886 24.6918C18.2078 24.633 18.423 24.5667 18.6339 24.4931C19.8607 24.065 20.9429 23.3917 21.8394 22.5436C21.8654 22.5191 21.8911 22.4944 21.9168 22.4696C21.9927 22.3961 22.0672 22.3213 22.1404 22.2452C22.1843 22.1996 22.2277 22.1535 22.2706 22.1069C22.4697 21.891 22.4454 21.4313 22.0133 21.5055ZM22.9037 11.3429C22.931 11.2456 23.0689 11.2456 23.0962 11.3429L23.6424 13.2883C23.6518 13.3219 23.6781 13.3481 23.7116 13.3575L25.657 13.9037C25.7543 13.931 25.7543 14.0689 25.657 14.0962L23.7116 14.6424C23.6781 14.6518 23.6518 14.678 23.6424 14.7116L23.0962 16.657C23.0689 16.7543 22.931 16.7543 22.9037 16.657L22.3575 14.7116C22.3481 14.678 22.3219 14.6518 22.2883 14.6424L20.3429 14.0962C20.2456 14.0689 20.2456 13.931 20.3429 13.9037L22.2883 13.3575C22.3219 13.3481 22.3481 13.3219 22.3575 13.2883L22.9037 11.3429ZM17.9037 9.34289C17.931 9.24559 18.0689 9.24559 18.0962 9.34289L18.4232 10.5075C18.4326 10.5411 18.4589 10.5673 18.4924 10.5767L19.657 10.9037C19.7543 10.931 19.7543 11.0689 19.657 11.0962L18.4924 11.4232C18.4589 11.4326 18.4326 11.4588 18.4232 11.4924L18.0962 12.657C18.0689 12.7543 17.931 12.7543 17.9037 12.657L17.5767 11.4924C17.5673 11.4588 17.5411 11.4326 17.5075 11.4232L16.3429 11.0962C16.2456 11.0689 16.2456 10.931 16.3429 10.9037L17.5075 10.5767C17.5411 10.5673 17.5673 10.5411 17.5767 10.5075L17.9037 9.34289Z" fill="#272F5A" fillOpacity="0.45"/>
</svg>
