<svg width="58" height="48" viewBox="0 0 58 48" fill="none" xmlns="http://www.w3.org/2000/svg">
<g clip-path="url(#clip0)">
<path d="M1.37442 31.6789L26.4747 47.3487C27.2492 47.776 28.1174 48 28.9996 48C29.8818 48 30.75 47.776 31.5245 47.3487L56.6257 31.6789C57.0415 31.4495 57.3885 31.111 57.6302 30.6991C57.872 30.2871 57.9996 29.8169 57.9996 29.3379C57.9996 28.8588 57.872 28.3886 57.6302 27.9767C57.3885 27.5648 57.0415 27.2263 56.6257 26.9969L31.5245 11.3177C30.75 10.8904 29.8818 10.6665 28.9996 10.6665C28.1174 10.6665 27.2492 10.8904 26.4747 11.3177L1.37442 26.9923C0.957519 27.2213 0.609444 27.5599 0.366902 27.9723C0.124359 28.3847 -0.00366211 28.8557 -0.00366211 29.3356C-0.00366211 29.8154 0.124359 30.2864 0.366902 30.6988C0.609444 31.1113 0.957519 31.4498 1.37442 31.6789Z" fill="#38437A"/>
<path d="M1.37448 21.0077L26.4748 36.6823C27.2494 37.1092 28.1175 37.3329 28.9997 37.3329C29.8818 37.3329 30.7499 37.1092 31.5245 36.6823L56.6258 21.0077C58.4579 19.9968 58.4579 17.3358 56.6258 16.3258L31.5245 0.652213C30.75 0.224893 29.8819 0.000976562 28.9997 0.000976562C28.1174 0.000976563 27.2493 0.224893 26.4748 0.652213L1.37448 16.3258C-0.46044 17.3358 -0.46044 19.9968 1.37448 21.0077Z" fill="#00C2FF"/>
<path d="M26.4748 11.3177L6.16626 23.9995L26.4748 36.6823C27.2494 37.1092 28.1175 37.3329 28.9996 37.3329C29.8818 37.3329 30.7499 37.1092 31.5245 36.6823L51.834 23.9995L31.5245 11.3177C30.75 10.8904 29.8819 10.6665 28.9996 10.6665C28.1174 10.6665 27.2493 10.8904 26.4748 11.3177Z" fill="#269EE1"/>
<path d="M34.8664 24.0125L51.9215 13.3675L50.0073 12.1851L41.46 17.5193L20.468 4.40234L18.4995 5.6313L39.4777 18.7389L32.9505 22.8301L34.8664 24.0125Z" fill="white"/>
<path d="M39.1193 31.963L18.0793 19.0194L24.5449 14.9813L22.5672 13.7607L6.17261 24.0014L8.15031 25.222L16.1118 20.2484L37.1397 33.1845L39.1193 31.963Z" fill="white"/>
</g>
<defs>
<clipPath id="clip0">
<rect width="58" height="48" fill="white"/>
</clipPath>
</defs>
</svg>
