<svg width="217" height="35" viewBox="0 0 217 35" fill="none" xmlns="http://www.w3.org/2000/svg">
<g clip-path="url(#clip0)">
<path d="M0 3.13562V0.867188H10.0609V3.13562H6.26312V13.0479H3.79775V3.13562H0Z" fill="#4F5578"/>
<path d="M11.1431 13.0483V3.44446H13.4439L13.6084 5.10241C14.2762 3.81718 15.444 3.17456 17.0897 3.17456C17.1955 3.17151 17.3015 3.17796 17.4062 3.19384V5.85748C17.0492 5.78156 16.6854 5.74387 16.3207 5.74502C15.1434 5.74502 14.1623 6.19806 13.7635 7.20376V13.0515L11.1431 13.0483Z" fill="#4F5578"/>
<path d="M19.1659 7.46396C20.019 6.92666 21.0112 6.6614 22.0142 6.70247C22.7929 6.67637 23.5694 6.80067 24.3024 7.06876V6.72174C24.3024 5.75782 23.6694 5.26301 22.3814 5.26301C21.2013 5.233 20.0305 5.48042 18.9602 5.98595V3.68218C20.1888 3.29131 21.4706 3.10045 22.758 3.11668C25.4565 3.11668 26.8057 4.42761 26.8057 7.04948V13.0483H24.9069L24.6853 11.7181C24.2998 12.2455 23.7847 12.661 23.1915 12.923C22.508 13.1719 21.7843 13.2874 21.0585 13.2636C20.6355 13.2847 20.213 13.2113 19.8209 13.0486C19.4289 12.886 19.0767 12.638 18.7893 12.3221C18.2275 11.7143 17.9239 10.9063 17.9443 10.073C17.9412 8.90342 18.3969 7.99091 19.1659 7.46396ZM22.0142 11.3197C22.4734 11.3147 22.9238 11.1912 23.323 10.9607C23.7222 10.7302 24.0571 10.4004 24.2961 10.0023V8.90985C23.7737 8.60042 23.1756 8.44778 22.5712 8.46966C21.2041 8.46323 20.5711 8.96126 20.5711 10.0151C20.5711 10.7702 21.1218 11.3132 22.0206 11.3132L22.0142 11.3197Z" fill="#4F5578"/>
<path d="M29.3442 13.0483V3.44439H31.664V5.02522C32.2463 3.74 33.3604 3.11666 35.0124 3.11666C35.4568 3.09356 35.9012 3.16255 36.3185 3.31943C36.7358 3.4763 37.1173 3.71779 37.4398 4.02917C38.0442 4.63966 38.3481 5.52646 38.3481 6.66389V13.0483H35.7245V7.16192C35.7245 5.74174 35.1136 5.26299 34.0376 5.26299C33.6036 5.28266 33.1827 5.4196 32.8183 5.65966C32.4539 5.89972 32.1592 6.2342 31.9647 6.62855V13.0547L29.3442 13.0483Z" fill="#4F5578"/>
<path d="M44.5411 3.11668C45.6897 3.0936 46.8273 3.34684 47.861 3.85569V5.99238C47.3839 5.77854 46.8819 5.62738 46.3672 5.54255C45.7266 5.40788 45.0749 5.33473 44.4208 5.32406C44.0929 5.30068 43.7636 5.3388 43.4492 5.43652C43.3029 5.48837 43.1786 5.58985 43.0973 5.72388C43.016 5.8579 42.9827 6.01628 43.003 6.17231C43.003 6.54824 43.2056 6.81493 43.6518 6.98201C44.1346 7.1711 44.6351 7.30997 45.1456 7.3965L45.2943 7.4222L46.0539 7.59249C46.2469 7.64069 46.4811 7.70495 46.7311 7.7917C47.1384 7.90955 47.5146 8.1181 47.8325 8.40219C48.2977 8.80703 48.5477 9.40145 48.5477 10.2754C48.5574 10.7213 48.4543 11.1622 48.2482 11.556C48.042 11.9498 47.7398 12.2833 47.3704 12.5246C46.4614 13.125 45.3905 13.4227 44.3069 13.376C42.996 13.3967 41.7013 13.0794 40.544 12.4539V10.2818C41.1434 10.5567 41.7677 10.7719 42.408 10.9244C43.0836 11.1083 43.7785 11.2086 44.4778 11.2233C45.3196 11.2233 45.9051 10.902 45.9051 10.3204C45.9051 8.73956 40.3794 10.2465 40.3794 6.31048C40.3794 4.26375 41.87 3.11668 44.5411 3.11668Z" fill="#4F5578"/>
<path d="M50.3833 16.708V3.44443H52.6461L52.7569 4.95136C53.4531 3.72718 54.526 3.1167 56.0166 3.1167C57.5072 3.1167 58.6592 3.66292 59.3745 4.5658C60.113 5.57222 60.4914 6.8042 60.4473 8.0584C60.4686 9.39703 60.0437 10.7037 59.2415 11.7663C58.819 12.2842 58.2861 12.698 57.683 12.9763C57.0799 13.2546 56.4225 13.3902 55.7603 13.3728C55.2458 13.3912 54.7337 13.2936 54.2609 13.0869C53.7881 12.8802 53.3663 12.5697 53.0259 12.1776V16.708H50.3833ZM52.9879 10.3076C53.6711 10.8604 54.5263 11.1476 55.3995 11.1172C57.0673 11.0883 57.7541 9.74206 57.7541 8.11303C57.7541 6.42938 56.9661 5.33693 55.3995 5.33693C54.944 5.34151 54.4924 5.42407 54.064 5.58113C53.6671 5.72137 53.3015 5.93975 52.9879 6.22374V10.3076Z" fill="#4F5578"/>
<path d="M63.0963 7.46428C63.9494 6.92698 64.9416 6.66172 65.9446 6.70278C66.7233 6.67669 67.4998 6.80099 68.2328 7.06907V6.72206C68.2328 5.75814 67.5998 5.26333 66.3118 5.26333C65.1317 5.23331 63.9609 5.48074 62.8906 5.98627V3.68249C64.1141 3.2932 65.3905 3.10235 66.6725 3.11699C69.3816 3.11699 70.7361 4.42793 70.7361 7.04979V13.0486H68.8531L68.6126 11.7184C68.2271 12.2458 67.712 12.6613 67.1188 12.9233C66.4352 13.1722 65.7115 13.2877 64.9857 13.2639C64.5622 13.285 64.1393 13.2117 63.7467 13.049C63.3541 12.8864 63.0014 12.6384 62.7134 12.3224C62.1536 11.7135 61.8513 10.906 61.8716 10.0733C61.8716 8.90374 62.3241 7.99122 63.0963 7.46428ZM65.9446 11.32C66.4038 11.315 66.8542 11.1915 67.2534 10.961C67.6526 10.7305 67.9875 10.4007 68.2265 10.0026V8.91016C67.7039 8.60122 67.106 8.44862 66.5016 8.46997C65.1281 8.46997 64.4793 8.968 64.4793 10.0219C64.4857 10.7705 65.0522 11.3135 65.951 11.3135L65.9446 11.32Z" fill="#4F5578"/>
<path d="M73.2744 13.0483V3.44446H75.5752L75.7429 5.10241C76.4107 3.81718 77.5785 3.17456 79.2242 3.17456C79.3301 3.17151 79.436 3.17796 79.5407 3.19384V5.85748C79.1837 5.78172 78.8199 5.74403 78.4552 5.74502C77.2779 5.74502 76.2936 6.19806 75.8949 7.20376V13.0515L73.2744 13.0483Z" fill="#4F5578"/>
<path d="M85.0788 3.13574C86.6612 3.13574 87.905 3.68839 88.6012 4.60412C89.3042 5.56483 89.6636 6.74009 89.6203 7.93607C89.6176 8.40838 89.5806 8.87984 89.5095 9.34661H82.6673C82.8635 10.6318 84.0661 11.2102 85.7814 11.2102C86.8183 11.1655 87.843 10.9663 88.8228 10.619V12.6978C88.0337 13.1498 86.9123 13.3758 85.4586 13.3758C83.6325 13.3758 82.1957 12.8103 81.3444 11.8592C80.4781 10.8517 80.025 9.54547 80.0785 8.20918C80.069 4.75192 82.49 3.13574 85.0788 3.13574ZM87.1359 7.58585C87.1359 6.09177 86.3384 5.31742 85.0788 5.31742C83.6325 5.31742 82.6863 6.15603 82.5755 7.58585H87.1359Z" fill="#4F5578"/>
<path d="M91.7788 13.0482V3.44435H94.0954V5.02518C94.6809 3.73995 95.7949 3.11662 97.4438 3.11662C97.8887 3.09364 98.3335 3.16267 98.7513 3.31953C99.1691 3.47639 99.5512 3.71781 99.8743 4.02913C100.476 4.63961 100.783 5.52642 100.783 6.66385V13.0482H98.159V7.16188C98.159 5.7417 97.5451 5.26295 96.469 5.26295C96.0361 5.28374 95.6165 5.4212 95.2533 5.6612C94.8901 5.9012 94.5964 6.23508 94.4024 6.6285V13.0546L91.7788 13.0482Z" fill="#4F5578"/>
<path d="M103.172 1.60666L105.777 0.729492V3.43169H108.679V5.4752H105.777V9.77108C105.777 10.5711 106.204 10.8924 107.103 10.8924C107.572 10.9094 108.036 10.7985 108.448 10.5711V12.7817C107.762 13.1515 106.99 13.3279 106.214 13.2926C104.182 13.2926 103.172 12.2644 103.172 10.2241V1.60666Z" fill="#4F5578"/>
<path d="M114.822 3.13562V0.867188H124.883V3.13562H121.085V13.0479H118.616V3.13562H114.822Z" fill="#4F5578"/>
<path d="M129.667 3.13574C131.25 3.13574 132.494 3.68839 133.19 4.60412C133.893 5.56483 134.252 6.74009 134.209 7.93607C134.206 8.40838 134.169 8.87984 134.098 9.34661H127.256C127.449 10.6318 128.655 11.2102 130.37 11.2102C131.407 11.1655 132.432 10.9663 133.411 10.619V12.6978C132.622 13.1498 131.501 13.3758 130.047 13.3758C128.221 13.3758 126.784 12.8103 125.933 11.8592C125.065 10.8526 124.612 9.54572 124.667 8.20918C124.661 4.75192 127.079 3.13574 129.667 3.13574ZM131.725 7.58585C131.725 6.09177 130.927 5.31742 129.667 5.31742C128.221 5.31742 127.275 6.15603 127.164 7.58585H131.725Z" fill="#4F5578"/>
<path d="M137.232 4.53688C138.181 3.57296 139.447 3.1167 141.029 3.1167C141.508 3.12217 141.985 3.16622 142.457 3.24844C142.908 3.32101 143.347 3.4539 143.764 3.64364V5.95063C143.42 5.74203 143.043 5.59529 142.65 5.51686C142.187 5.4127 141.715 5.35884 141.241 5.35621C139.469 5.35621 138.507 6.35548 138.507 8.2287C138.463 8.99581 138.705 9.75173 139.184 10.3461C139.404 10.5999 139.677 10.8007 139.983 10.9341C140.289 11.0675 140.621 11.13 140.953 11.1172C141.968 11.1629 142.977 10.9322 143.874 10.4489V12.7559C143.425 12.9776 142.948 13.1354 142.457 13.225C141.955 13.3231 141.445 13.3737 140.934 13.376C138.086 13.4339 135.798 11.4289 135.826 8.3026C135.824 6.74104 136.293 5.4858 137.232 4.53688Z" fill="#4F5578"/>
<path d="M145.799 13.0483V0H148.407V4.75213C148.718 4.22587 149.165 3.79562 149.699 3.50752C150.233 3.21941 150.835 3.0843 151.438 3.11668C151.885 3.09333 152.332 3.1631 152.751 3.3217C153.17 3.48029 153.553 3.72435 153.875 4.03883C154.47 4.64932 154.765 5.53612 154.765 6.68319V13.0483H152.16V7.16194C152.16 5.76104 151.527 5.28229 150.454 5.28229C150.022 5.29587 149.603 5.43027 149.241 5.67066C148.88 5.91106 148.591 6.24811 148.407 6.64463V13.0483H145.799Z" fill="#4F5578"/>
<path d="M157.306 13.0482V3.44435H159.625V5.02518C160.208 3.73995 161.322 3.11662 162.971 3.11662C163.416 3.09364 163.86 3.16267 164.278 3.31953C164.696 3.47639 165.078 3.71781 165.401 4.02913C166.003 4.63961 166.31 5.52642 166.31 6.66385V13.0482H163.686V7.16188C163.686 5.7417 163.072 5.26295 161.999 5.26295C161.566 5.28384 161.146 5.42131 160.782 5.66127C160.418 5.90122 160.124 6.23504 159.929 6.6285V13.0546L157.306 13.0482Z" fill="#4F5578"/>
<path d="M173.013 3.1167C174.709 3.1167 176.092 3.71754 176.915 4.65897C177.748 5.64031 178.199 6.8977 178.181 8.19335C178.235 11.0851 176.206 13.4082 173.016 13.3793C171.338 13.3793 169.965 12.7688 169.139 11.8273C168.3 10.8494 167.849 9.58973 167.873 8.29296C167.857 5.35621 169.794 3.1167 173.013 3.1167ZM173.013 11.1751C174.886 11.1751 175.497 9.66815 175.497 8.32188C175.497 7.23907 175.199 6.3362 174.43 5.75142C174.019 5.45038 173.52 5.29771 173.013 5.31765C171.149 5.31765 170.566 6.81495 170.566 8.15158C170.582 9.71314 171.269 11.1751 173.013 11.1751Z" fill="#4F5578"/>
<path d="M179.782 13.0483V0H182.425V13.0483H179.782Z" fill="#4F5578"/>
<path d="M189.118 3.1167C190.815 3.1167 192.198 3.71754 193.024 4.65897C193.856 5.64092 194.306 6.89791 194.289 8.19335C194.346 11.0851 192.315 13.4082 189.125 13.3793C187.447 13.3793 186.074 12.7688 185.251 11.8273C184.411 10.8501 183.959 9.58993 183.985 8.29296C183.963 5.35621 185.903 3.1167 189.118 3.1167ZM189.118 11.1751C190.992 11.1751 191.603 9.66815 191.603 8.32188C191.603 7.23907 191.308 6.3362 190.536 5.75142C190.124 5.45038 189.625 5.29771 189.118 5.31765C187.254 5.31765 186.672 6.81495 186.672 8.15158C186.672 9.71314 187.374 11.1751 189.118 11.1751Z" fill="#4F5578"/>
<path d="M197.761 3.92642C198.504 3.40017 199.387 3.11759 200.293 3.11673C200.876 3.09169 201.456 3.20331 201.99 3.44291C202.523 3.68251 202.995 4.04366 203.369 4.49835L203.527 3.43482H205.711V11.5221C205.686 15.2589 203.246 16.7851 200.435 16.7851C199.206 16.8328 197.987 16.5466 196.903 15.9562V13.6203C197.902 14.1867 199.023 14.4945 200.166 14.5167C202.17 14.5167 203.173 13.7713 203.173 12.2933V12.0491C202.765 12.4419 202.285 12.749 201.759 12.9525C201.234 13.156 200.674 13.2519 200.113 13.2347C197.283 13.2347 195.726 10.9855 195.726 8.20945C195.72 6.16593 196.593 4.7072 197.761 3.92642ZM198.948 10.3076C199.144 10.5809 199.405 10.8 199.706 10.9448C200.008 11.0896 200.34 11.1555 200.673 11.1366C201.176 11.1639 201.676 11.0489 202.119 10.8044C202.562 10.5599 202.929 10.1955 203.179 9.75172V6.31695C202.538 5.66808 201.673 5.29719 200.768 5.28234C199.185 5.28234 198.366 6.40049 198.366 8.28335C198.337 9.00451 198.542 9.71536 198.948 10.3076Z" fill="#4F5578"/>
<path d="M207.012 3.44434H209.899L212.114 9.29213L214.256 3.44434H217.01L211.149 16.7079H208.496L210.965 12.0682L207.012 3.44434Z" fill="#4F5578"/>
<g opacity="0.85">
<path opacity="0.85" d="M2.91483 28.3813H4.23139V32.3399C4.23139 32.9182 4.34848 33.3038 4.58584 33.5448C4.86876 33.7827 5.23254 33.8981 5.59857 33.8661C5.96712 33.8546 6.32571 33.7419 6.63614 33.5399C6.94657 33.3379 7.19721 33.0542 7.36136 32.719V28.3813H8.67791V34.7818H7.64936V33.6765C7.35423 34.1784 6.9018 34.5654 6.36445 34.7754C5.9279 34.933 5.46686 35.0092 5.00359 35.0003C4.72252 35.0143 4.4417 34.968 4.17941 34.8645C3.91713 34.761 3.67927 34.6025 3.48133 34.3994C3.07766 33.9255 2.87513 33.3087 2.918 32.6837L2.91483 28.3813Z" fill="#4F5578"/>
<path opacity="0.85" d="M10.3521 34.7818V28.3813H11.3933V29.6666C11.6261 29.2 11.987 28.8119 12.4323 28.5491C12.8776 28.2862 13.3884 28.1599 13.9029 28.1853C14.0707 28.1853 14.2004 28.1853 14.2796 28.1853V29.5541C14.048 29.493 13.8099 29.4606 13.5706 29.4577C12.6972 29.4577 12.0737 29.8979 11.6718 30.7815V34.7561L10.3521 34.7818Z" fill="#4F5578"/>
<path opacity="0.85" d="M15.0991 26.084H16.3904V28.9758C17.0173 28.4261 17.8254 28.137 18.6532 28.1661C20.3084 28.1661 21.5458 29.2842 21.5395 31.4852C21.5395 33.9271 19.8463 35.0195 17.8303 35.0195C16.8758 35.0057 15.9388 34.7577 15.0991 34.2966V26.084ZM16.3904 33.4933C16.8718 33.6944 17.3858 33.8033 17.9063 33.8146C18.5037 33.8365 19.0876 33.6301 19.5425 33.2363C19.7662 33.0121 19.9387 32.7408 20.0481 32.4416C20.1575 32.1424 20.2009 31.8225 20.1754 31.5044C20.1754 29.9686 19.2735 29.3581 18.3399 29.3581C17.6135 29.3532 16.9127 29.6302 16.3809 30.1325L16.3904 33.4933Z" fill="#4F5578"/>
<path opacity="0.85" d="M23.2897 31.1668C23.8355 30.829 24.4675 30.6624 25.1063 30.6881C25.4097 30.6951 25.7117 30.7317 26.0083 30.7973C26.3398 30.8632 26.665 30.9589 26.9798 31.0833V30.5017C26.9798 29.6984 26.3722 29.2968 25.1664 29.2968C24.4777 29.2754 23.7934 29.415 23.1663 29.7049V28.5482C23.8571 28.297 24.5846 28.1656 25.3183 28.1594C25.9052 28.1348 26.4906 28.2355 27.0368 28.455C27.279 28.5662 27.4981 28.7233 27.6824 28.9177C28.1 29.4279 28.3105 30.0805 28.2711 30.7427V34.7912H27.3944L27.2457 33.7855C26.9602 34.1665 26.587 34.4706 26.1588 34.6711C25.7307 34.8717 25.2606 34.9625 24.7898 34.9357C24.2298 34.9358 23.6844 34.7546 23.2327 34.4184C22.9981 34.2336 22.8094 33.9954 22.6819 33.7231C22.5544 33.4508 22.4916 33.1519 22.4985 32.8505C22.4765 32.5244 22.5378 32.1982 22.6764 31.9032C22.815 31.6083 23.0263 31.3546 23.2897 31.1668ZM25.1886 33.9011C25.5491 33.8985 25.9006 33.7866 26.1981 33.5798C26.5291 33.3595 26.801 33.0592 26.9893 32.7059V32.1789C26.4703 31.8475 25.8682 31.6746 25.255 31.6809C24.3056 31.6809 23.8499 32.0183 23.8499 32.6962C23.8499 33.4931 24.2961 33.8947 25.1791 33.8947L25.1886 33.9011Z" fill="#4F5578"/>
<path opacity="0.85" d="M29.9578 34.7814V28.381H30.9832V29.5088C31.2232 29.0869 31.5711 28.7388 31.99 28.5012C32.409 28.2637 32.8834 28.1455 33.3631 28.1593C34.629 28.1593 35.781 28.8565 35.781 30.4631V34.7814H34.4644V30.8197C34.4644 29.7658 33.8948 29.2774 33.0972 29.2774C32.7044 29.2714 32.3191 29.3877 31.9932 29.6105C31.6673 29.8334 31.4164 30.1522 31.2743 30.5241V34.7686L29.9578 34.7814Z" fill="#4F5578"/>
<path opacity="0.85" d="M41.041 34.7818V28.6769C41.041 27.321 41.4746 26.6334 42.0664 26.2928C42.5354 26.0598 43.0543 25.9494 43.576 25.9715C43.9236 25.9824 44.2703 26.0146 44.6141 26.0679V27.1154C44.3162 27.0315 44.0085 26.9894 43.6994 26.9901C43.0665 26.9901 42.3576 27.17 42.3576 28.3653H44.2818V29.3806H42.3576V34.7657L41.041 34.7818Z" fill="#4F5578"/>
<path opacity="0.85" d="M45.5732 28.3813H46.8898V32.3399C46.8898 32.9182 47.0069 33.3198 47.2411 33.5448C47.5253 33.7826 47.89 33.898 48.2569 33.8661C48.6251 33.8547 48.9833 33.742 49.2933 33.54C49.6032 33.3379 49.8532 33.0542 50.0166 32.719V28.3813H51.3331V34.7818H50.3077V33.6765C50.0126 34.1784 49.5602 34.5653 49.0228 34.7754C48.5861 34.9325 48.1252 35.0087 47.662 35.0003C47.3804 35.0147 47.0989 34.9687 46.8361 34.8652C46.5732 34.7616 46.3348 34.6029 46.1365 34.3994C45.9359 34.1652 45.7829 33.8931 45.6862 33.5986C45.5895 33.3042 45.5511 32.9932 45.5732 32.6836V28.3813Z" fill="#4F5578"/>
<path opacity="0.85" d="M52.9343 27.1639L54.2509 26.5791V28.3816H56.3143V29.397H54.2509V32.7932C54.2509 33.4743 54.5674 33.8149 55.1718 33.8149C55.3503 33.8091 55.5275 33.7832 55.7003 33.7378C55.8587 33.7046 56.0127 33.6528 56.1592 33.5836V34.7114C55.7422 34.885 55.2929 34.9639 54.8427 34.9427C53.6116 34.9427 52.9438 34.3001 52.9438 32.7868L52.9343 27.1639Z" fill="#4F5578"/>
<path opacity="0.85" d="M57.5013 28.3813H58.8178V32.3399C58.8178 32.9182 58.9349 33.3038 59.1723 33.5448C59.4552 33.7827 59.819 33.8981 60.185 33.8661C60.5535 33.8546 60.9121 33.7419 61.2226 33.5399C61.533 33.3379 61.7836 33.0542 61.9478 32.719V28.3813H63.2643V34.7818H62.2358V33.6765C61.9406 34.1784 61.4882 34.5653 60.9509 34.7754C60.5143 34.933 60.0533 35.0092 59.59 35.0003C59.3084 35.0147 59.027 34.9687 58.7641 34.8652C58.5013 34.7616 58.2629 34.6029 58.0646 34.3994C57.6609 33.9255 57.4584 33.3087 57.5013 32.6836V28.3813Z" fill="#4F5578"/>
<path opacity="0.85" d="M64.9382 34.7818V28.3813H65.9636V29.6666C66.1964 29.2 66.5573 28.8119 67.0027 28.5491C67.448 28.2862 67.9588 28.1599 68.4733 28.1853C68.641 28.1853 68.7708 28.1853 68.8499 28.1853V29.5541C68.6183 29.493 68.3803 29.4606 68.141 29.4577C67.2675 29.4577 66.6441 29.8979 66.2421 30.7815V34.7561L64.9382 34.7818Z" fill="#4F5578"/>
<path opacity="0.85" d="M70.2045 29.0401C70.8273 28.4713 71.636 28.1575 72.4737 28.1597C73.5117 28.1597 74.3219 28.5067 74.7903 29.0818C75.2701 29.6961 75.5182 30.464 75.4897 31.2474C75.4897 31.4788 75.4708 31.7872 75.4328 32.1696H70.5748C70.6062 32.4512 70.7025 32.7212 70.8559 32.9579C71.0093 33.1946 71.2155 33.3913 71.4578 33.5319C71.9266 33.7823 72.4505 33.9073 72.9801 33.895C73.6682 33.9055 74.3508 33.7686 74.9834 33.4934V34.5858C74.6616 34.7417 74.3195 34.8499 73.9675 34.9071C73.5658 34.9752 73.1594 35.0107 72.7522 35.0132C71.5591 35.0132 70.6128 34.6372 70.0495 34.0043C69.4754 33.33 69.1755 32.4593 69.2108 31.5687C69.1931 31.1002 69.2725 30.633 69.4436 30.1974C69.6148 29.7619 69.874 29.3676 70.2045 29.0401ZM74.1922 31.1671C74.2072 30.9136 74.1722 30.6597 74.089 30.4202C74.0058 30.1807 73.8763 29.9605 73.708 29.7726C73.5478 29.6062 73.3555 29.4751 73.1431 29.3878C72.9307 29.3004 72.7028 29.2586 72.4737 29.265C71.328 29.265 70.6191 29.9751 70.5495 31.1543L74.1922 31.1671Z" fill="#4F5578"/>
</g>
</g>
<defs>
<clipPath id="clip0">
<rect width="217" height="35" fill="white"/>
</clipPath>
</defs>
</svg>
