<svg width="510" height="340" viewBox="0 0 510 340" fill="none" xmlns="http://www.w3.org/2000/svg">
<path d="M-310.043 103.928L53.459 330.58C64.6753 336.761 77.2475 340 90.024 340C102.8 340 115.373 336.761 126.589 330.58L490.104 103.928C496.125 100.61 501.15 95.7141 504.651 89.7558C508.152 83.7975 510 76.9964 510 70.0674C510 63.1383 508.152 56.3372 504.651 50.3789C501.15 44.4206 496.125 39.5251 490.104 36.2069L126.589 -190.58C115.373 -196.761 102.8 -200 90.024 -200C77.2475 -200 64.6753 -196.761 53.459 -190.58L-310.043 36.1396C-316.08 39.4523 -321.121 44.3495 -324.634 50.3149C-328.146 56.2803 -330 63.0927 -330 70.0337C-330 76.9747 -328.146 83.787 -324.634 89.7524C-321.121 95.7178 -316.08 100.615 -310.043 103.928Z" fill="#00C2FF" fill-opacity="0.15"/>
</svg>
