<svg width="510" height="340" viewBox="0 0 510 340" fill="none" xmlns="http://www.w3.org/2000/svg">
<path d="M19.9573 303.928L383.459 530.58C394.675 536.761 407.248 540 420.024 540C432.8 540 445.373 536.761 456.589 530.58L820.104 303.928C826.125 300.61 831.15 295.714 834.651 289.756C838.152 283.797 840 276.996 840 270.067C840 263.138 838.152 256.337 834.651 250.379C831.15 244.421 826.125 239.525 820.104 236.207L456.589 9.41964C445.373 3.23878 432.8 0 420.024 0C407.248 0 394.675 3.23878 383.459 9.41964L19.9573 236.14C13.9198 239.452 8.87897 244.35 5.36649 250.315C1.854 256.28 0 263.093 0 270.034C0 276.975 1.854 283.787 5.36649 289.752C8.87897 295.718 13.9198 300.615 19.9573 303.928Z" fill="#1D2654" fill-opacity="0.15"/>
</svg>
